# xmcd
#
# Track frame offsets: 
#        150
#        726
#        16151
#        30165
#        45390
#        52749
#        69389
#        85822
#        101625
#        116106
#        130496
#        138704
#        158174
#        171825
#
# Disc length: 2535 seconds
#
# Revision: 0
# Processed by: cddbd v1.5.2PL0 Copyright (c) Steve Scherf et al.
# Submitted via: ExactAudioCopy v0.99pb4
#
DISCID=ab09e50e
DTITLE=Prado - Ночь И R&B
DYEAR=2007
DGENRE=R&B
TTITLE0=Metro Goldwyn Mayer (intro)
TTITLE1=Miss R&B
TTITLE2=Сеньорита
TTITLE3=Королева Ночи
TTITLE4=Богиня (interlude)
TTITLE5=Ночь И R&B
TTITLE6=Brand Life
TTITLE7=Инстинкт Кобры
TTITLE8=Магнит
TTITLE9=Любое Мое Слово
TTITLE10=Коктейль (interlude)
TTITLE11=Дьявол Носит PRADA
TTITLE12=Honey
TTITLE13=Последний Блюз
EXTD=
EXTT0=
EXTT1=
EXTT2=
EXTT3=
EXTT4=
EXTT5=
EXTT6=
EXTT7=
EXTT8=
EXTT9=
EXTT10=
EXTT11=
EXTT12=
EXTT13=
PLAYORDER=
